<svg version="1.2" xmlns="http://www.w3.org/2000/svg" viewBox="0 0 50 50" width="50" height="50">
	<title>icon-cba-vzdelavaci-programy-svg</title>
	<style>
		.s0 { fill: #ffffff } 
	</style>
	<g id="Symbols">
		<g id="cap">
			<path id="Shape" fill-rule="evenodd" class="s0" d="m49.4 15.3v3.3c0 0.3-0.1 0.6-0.4 0.7l-7.4 2.8v11.3c0 0.2-0.1 0.4-0.2 0.6q-1.6 1.2-3.4 2.2v3.7c1.2 0.3 2 1.4 2 2.6 0 1.6-1.2 2.8-2.7 2.8-1.5 0-2.7-1.2-2.7-2.8 0-1.2 0.8-2.3 2-2.6v-2.9c-3.5 1.7-7.4 2.6-11.4 2.6-5.8 0-11.6-2-16.1-5.6-0.2-0.2-0.3-0.4-0.3-0.6v-6c0-0.4 0.3-0.7 0.7-0.7 0.4 0 0.7 0.3 0.7 0.7v5.7c4.3 3.3 9.6 5.1 15 5.1 4 0 7.9-1 11.4-2.8v-11.4l-11.1 4.2q-0.1 0.1-0.3 0.1-0.1 0-0.2-0.1l-14.8-5.6v2c0 0.4-0.3 0.7-0.7 0.7-0.4 0-0.7-0.3-0.7-0.7v-2.5l-7.3-2.8c-0.3-0.1-0.5-0.4-0.5-0.7v-3.3c0-0.3 0.2-0.6 0.5-0.7l23.5-8.9q0.2-0.1 0.5 0l5.5 2.1c0.4 0.1 0.6 0.6 0.4 0.9-0.1 0.4-0.5 0.6-0.9 0.4l-5.3-2-21.5 8.2 21.5 8.2 10.2-3.9-10.5-4.7c-0.3-0.2-0.5-0.6-0.3-1 0.1-0.4 0.6-0.5 0.9-0.4l11.8 5.4 9.4-3.6-13.6-5.2c-0.3-0.1-0.5-0.5-0.4-0.9 0.2-0.4 0.6-0.5 1-0.4l15.3 5.8c0.3 0.1 0.4 0.4 0.4 0.7zm-12.1 26c-0.7 0-1.3 0.5-1.3 1.2 0 0.8 0.6 1.3 1.3 1.3 0.7 0 1.3-0.5 1.3-1.3 0-0.7-0.6-1.2-1.3-1.2zm-34.9-23.2l22.1 8.4v-1.7l-22.1-8.4zm34.2 4.3v-1.7l-10.7 4v1.8zm3.7 0.1l-2.2 0.9v11.1q1.1-0.7 2.2-1.5zm7.8-4.6v-1.7l-10 3.8v1.8z"/>
		</g>
	</g>
</svg>