<?xml version="1.0" encoding="UTF-8"?>
<svg width="12px" height="16px" viewBox="0 0 12 16" version="1.1" xmlns="http://www.w3.org/2000/svg" xmlns:xlink="http://www.w3.org/1999/xlink">
    <!-- Generator: Sketch 55.2 (78181) - https://sketchapp.com -->
    <title>location-point</title>
    <desc>Created with Sketch.</desc>
    <g id="Final" stroke="none" stroke-width="1" fill="none" fill-rule="evenodd">
        <g id="01_cba_HP_modry-prechod" transform="translate(-234.000000, -3450.000000)" fill="#007E79" fill-rule="nonzero">
            <g id="Kalendář-akcí" transform="translate(136.000000, 3238.000000)">
                <g id="Group-4" transform="translate(0.000000, 120.000000)">
                    <g id="info" transform="translate(96.000000, 68.000000)">
                        <g id="location-point" transform="translate(2.000000, 24.000000)">
                            <path d="M5.933,2.425 C4.011125,2.425 2.4475,3.9885625 2.4475,5.9104375 C2.4475,7.8323125 4.011125,9.395875 5.933,9.395875 C7.854875,9.395875 9.4185,7.8323125 9.4185,5.9104375 C9.4185,3.9885625 7.854875,2.425 5.933,2.425 Z M5.933,8.4583125 C4.5280625,8.4583125 3.385,7.3153125 3.385,5.910375 C3.385,4.5054375 4.5280625,3.3625 5.933,3.3625 C7.3379375,3.3625 8.481,4.5055 8.481,5.9104375 C8.481,7.315375 7.338,8.4583125 5.933,8.4583125 Z" id="Shape"></path>
                            <path d="M5.933,0 C2.674,0 0.022625,2.651375 0.022625,5.910375 C0.022625,7.789875 1.598875,10.5900625 2.5384375,12.091875 C3.156625,13.0799375 3.8209375,14.0203125 4.4089375,14.7396875 C5.35275,15.8943125 5.6905625,15.9909375 5.9330625,15.9909375 C6.1791875,15.9909375 6.498125,15.89425 7.439,14.739 C8.0283125,14.0153125 8.6929375,13.0755 9.3105,12.092625 C10.2565,10.587125 11.8434375,7.7819375 11.8434375,5.9103125 C11.8434375,2.651375 9.1920625,0 5.933,0 Z M8.6605625,11.3626875 C7.4483125,13.330375 6.335375,14.66 5.9274375,14.9994375 C5.517375,14.6704375 4.4225,13.3724375 3.1933125,11.368875 C1.774125,9.0554375 0.9601875,7.065875 0.9601875,5.910375 C0.9601875,3.1683125 3.1909375,0.9375 5.933,0.9375 C8.6750625,0.9375 10.905875,3.1683125 10.905875,5.910375 C10.905875,7.05925 10.0875,9.0465 8.6605625,11.3626875 Z" id="Shape"></path>
                        </g>
                    </g>
                </g>
            </g>
        </g>
    </g>
</svg>