<?xml version="1.0" encoding="UTF-8"?>
<svg width="50px" height="50px" viewBox="0 0 50 50" version="1.1" xmlns="http://www.w3.org/2000/svg" xmlns:xlink="http://www.w3.org/1999/xlink">
    <!-- Generator: Sketch 56.2 (81672) - https://sketch.com -->
    <title>icon</title>
    <desc>Created with Sketch.</desc>
    <g id="Symbols" stroke="none" stroke-width="1" fill="none" fill-rule="evenodd">
        <g id="icons-/-icon-vzdelani" transform="translate(1.000000, 1.000000)">
            <g id="icon">
                <circle id="Oval" stroke="#30905F" cx="24" cy="24" r="24"></circle>
                <g id="cap" transform="translate(10.000000, 12.000000)" fill="#30905F" fill-rule="nonzero">
                    <path d="M28.1725261,5.2890625 L19.1777344,1.859809 C18.9596354,1.77669272 18.7154948,1.88606772 18.6323784,2.10394967 C18.5492622,2.32204861 18.6586372,2.56618922 18.8767361,2.64930556 L26.8361545,5.68381078 L21.3261719,7.78472222 L14.3964844,4.64713544 C14.1838108,4.55078122 13.9335938,4.64518228 13.8374566,4.85763889 C13.7411024,5.0703125 13.8355034,5.3205295 14.0479601,5.41688367 L20.2139757,8.20876733 L14.2222222,10.4930556 L1.60828994,5.68381078 L14.2222222,0.874566 L17.3307292,2.05989583 C17.5483941,2.14279511 17.7927517,2.03363717 17.8760851,1.81553822 C17.9592014,1.59765622 17.8498264,1.35351561 17.6317274,1.27039933 L14.3728299,0.0277777778 C14.2758247,-0.00911455556 14.1686198,-0.00933161111 14.0716146,0.0277777778 L0.271918389,5.2890625 C0.108289944,5.3515625 5.77315973e-14,5.50868056 5.77315973e-14,5.68381078 L5.77315973e-14,7.61306422 C5.77315973e-14,7.78819444 0.108289944,7.9453125 0.271918389,8.0078125 L4.58116322,9.65060767 L4.58116322,11.1145833 C4.58116322,11.3478733 4.77018228,11.5371094 5.00347222,11.5371094 C5.23697917,11.5371094 5.42599828,11.3478733 5.42599828,11.1145833 L5.42599828,9.97287328 L14.0716146,13.2690972 C14.1202257,13.2875434 14.1712239,13.296875 14.2222222,13.296875 C14.2732205,13.296875 14.3242188,13.2875434 14.3728299,13.2690972 L20.8897569,10.7845052 L20.8897569,17.4702691 C18.84375,18.5442708 16.5494792,19.1197917 14.2222222,19.1197917 C11.0460069,19.1197917 7.93055556,18.0490451 5.42599828,16.1004774 L5.42599828,12.8044705 C5.42599828,12.5711806 5.23697917,12.3819444 5.00347222,12.3819444 C4.77018228,12.3819444 4.58116322,12.5711806 4.58116322,12.8044705 L4.58116322,16.3051216 C4.58116322,16.4333767 4.63932289,16.5546875 4.73936633,16.6347656 C7.41970489,18.7821181 10.7875434,19.9646267 14.2222222,19.9646267 C16.5386284,19.9646267 18.8242188,19.4259983 20.8897569,18.4171007 L20.8897569,20.1269531 C20.2089844,20.312934 19.7070312,20.9364149 19.7070312,21.6753472 C19.7070312,22.5603299 20.4270833,23.2805989 21.312066,23.2805989 C22.1972656,23.2805989 22.9173177,22.5603299 22.9173177,21.6753472 C22.9173177,20.9364149 22.4153646,20.312934 21.734592,20.1269531 L21.734592,17.9709201 C22.4231771,17.5792101 23.0828993,17.1334636 23.7052951,16.6347656 C23.8053386,16.5546875 23.8637153,16.4333767 23.8637153,16.3051216 L23.8637153,9.65039061 L28.1725261,8.0075955 C28.3361545,7.9453125 28.4444444,7.78819444 28.4444444,7.61284722 L28.4444444,5.68381078 C28.4444444,5.50868056 28.3361545,5.3515625 28.1725261,5.2890625 L28.1725261,5.2890625 Z M22.0724827,21.6753472 C22.0724827,22.0944011 21.7313368,22.4355469 21.312066,22.4355469 C20.8930122,22.4355469 20.5518663,22.0944011 20.5518663,21.6753472 C20.5518663,21.2560764 20.8930122,20.9149306 21.312066,20.9149306 C21.7313368,20.9149306 22.0724827,21.2560764 22.0724827,21.6753472 Z M0.844835056,6.297092 L13.7996962,11.2363281 L13.7996962,12.2610677 L0.844835056,7.32183161 L0.844835056,6.297092 Z M14.6447483,12.2610677 L14.6447483,11.2363281 L20.8897569,8.85525172 L20.8897569,9.88020833 L14.6447483,12.2610677 Z M23.0186632,16.1002604 C22.6065538,16.4210069 22.1775173,16.7174479 21.734592,16.9895833 L21.734592,10.4622396 L23.0186632,9.97265622 L23.0186632,16.1002604 Z M21.734592,9.55794272 L21.734592,8.53320311 L27.5996094,6.297092 L27.5996094,7.32183161 L21.734592,9.55794272 Z" id="Shape"></path>
                </g>
            </g>
        </g>
    </g>
</svg>