<?xml version="1.0" encoding="UTF-8"?>
<svg width="26px" height="19px" viewBox="0 0 26 19" version="1.1" xmlns="http://www.w3.org/2000/svg" xmlns:xlink="http://www.w3.org/1999/xlink">
    <!-- Generator: Sketch 56.2 (81672) - https://sketch.com -->
    <title>ytb</title>
    <desc>Created with Sketch.</desc>
    <g id="Final" stroke="none" stroke-width="1" fill="none" fill-rule="evenodd">
        <g id="01_cba_HP_modry-prechod" transform="translate(-383.000000, -4557.000000)" fill="#007E79" fill-rule="nonzero" stroke="#007E79" stroke-width="0.3">
            <g id="Projekty" transform="translate(136.000000, 4203.000000)">
                <g id="Projekt-1" transform="translate(0.000000, 122.000000)">
                    <g id="soc.-sítě" transform="translate(187.000000, 230.000000)">
                        <g id="ytb" transform="translate(61.000000, 3.000000)">
                            <path d="M12.5607721,17.0452478 C12.5608093,17.0452478 12.5608464,17.0452478 12.5608836,17.0452478 L12.5608836,17.3452478 C12.5608557,17.3452478 12.5608557,17.3452478 12.5607721,17.3452478 C12.5606886,17.3452478 12.5606886,17.3452478 12.5606607,17.0452478 C12.5606746,17.0452478 12.5606816,17.0452478 12.5607095,17.0452478 Z M12.5608836,17.3452478 C9.83763355,17.3452478 6.8678786,17.2594143 3.73177437,17.0904078 C1.80941694,16.9849853 0.318235892,15.5026254 0.106730071,13.49254 C-0.235531407,10.243859 -0.235531407,6.96426144 0.106738283,3.7446121 C0.317864738,1.75061525 1.80689138,0.268974222 3.72641158,0.148254368 C9.12518939,-0.191504775 14.6800439,-0.191504775 20.2448801,0.148233471 C22.1861493,0.266001269 23.6428823,1.71392436 23.8666917,3.74216967 C24.2082255,6.85229165 24.2084607,10.1315278 23.8672514,13.4906079 C23.6633874,15.499381 22.2082557,16.9491449 20.2515761,17.0893915 C17.8765066,17.2591266 15.2887523,17.3452478 12.5608836,17.3452478 Z M12.5608836,17.3452478 C12.5606886,17.3452478 12.5606886,17.3452478 12.5606607,17.0452478 C12.5606886,17.0452478 12.5606886,17.0452478 12.5607721,17.0452478 C12.5608557,17.0452478 12.5608557,17.0452478 12.5608836,17.0452478 L12.5608836,17.3452478 Z M11.9232,1.11372537 C9.21200064,1.11372537 6.47967604,1.19904577 3.80231602,1.36711509 C2.46684625,1.45083212 1.47080701,2.45397774 1.32043129,3.87333614 C0.987268553,7.00753642 0.987268553,10.2006347 1.32045003,13.364859 C1.47082108,14.7956355 2.46482677,15.798101 3.79734759,15.8713277 C6.91188629,16.0391324 9.85961593,16.1243642 12.5600239,16.1243642 C15.2594716,16.1243642 17.8179795,16.0394024 20.1638501,15.8719987 C21.5111555,15.775059 22.5093045,14.7721714 22.6517017,13.3672174 C22.9848796,10.0924202 22.9849874,6.89927492 22.6522594,3.87573391 C22.4957215,2.45174431 21.4993756,1.44778571 20.170562,1.36713026 C17.4154693,1.1989502 14.6402212,1.11372537 11.9232,1.11372537 Z M9.49126567,5.10959815 L16.0345573,8.53960049 L9.49126567,11.9234091 L9.49126567,5.10959815 Z" id="Shape"></path>
                        </g>
                    </g>
                </g>
            </g>
        </g>
    </g>
</svg>