<?xml version="1.0" encoding="UTF-8"?>
<svg width="26px" height="25px" viewBox="0 0 26 25" version="1.1" xmlns="http://www.w3.org/2000/svg" xmlns:xlink="http://www.w3.org/1999/xlink">
    <!-- Generator: Sketch 56.2 (81672) - https://sketch.com -->
    <title>linkedin</title>
    <desc>Created with Sketch.</desc>
    <g id="Final" stroke="none" stroke-width="1" fill="none" fill-rule="evenodd">
        <g id="01_cba_HP_modry-prechod" transform="translate(-455.000000, -4554.000000)" fill="#007E79" fill-rule="nonzero" stroke="#007E79" stroke-width="0.3">
            <g id="Projekty" transform="translate(136.000000, 4203.000000)">
                <g id="Projekt-1" transform="translate(0.000000, 122.000000)">
                    <g id="soc.-sítě" transform="translate(187.000000, 230.000000)">
                        <g id="linkedin" transform="translate(133.000000, 0.000000)">
                            <path d="M3.23368421,-0.137508772 C4.13293972,-0.137508772 4.96421162,0.21247549 5.57539935,0.864507082 C6.22300933,1.51211706 6.57820984,2.35571664 6.53755556,3.20622222 C6.53755556,4.10499509 6.17696921,4.94636751 5.53549292,5.58784379 C4.91122946,6.21210726 4.11557085,6.55 3.27363743,6.55 C3.21373099,6.55 3.21373099,6.55 3.20126536,6.549813 C2.37066494,6.59132599 1.48923273,6.22501389 0.852062638,5.58784379 C0.21058635,4.94636751 -0.15,4.10499509 -0.15,3.20622222 C-0.15,2.31306233 0.195872731,1.48083734 0.852062638,0.824647433 C1.47767866,0.19903141 2.31358422,-0.137508772 3.23368421,-0.137508772 Z M4.76443691,4.81683457 L4.76914227,4.81232926 C5.19983612,4.41751254 5.43909942,3.8293314 5.43909942,3.20626901 C5.43909942,2.59731296 5.20831064,2.03957718 4.76443691,1.59570344 C4.35897029,1.19023683 3.80070589,0.960947368 3.23368421,0.960947368 C2.59663304,0.960947368 2.03525337,1.18356872 1.62311865,1.59570344 C1.17924491,2.03957718 0.94845614,2.59731296 0.94845614,3.20626901 C0.94845614,3.8293314 1.18771943,4.41751254 1.62311865,4.81683457 C2.02214074,5.21585666 2.61658625,5.45159064 3.20313111,5.45188254 C3.76851245,5.48720594 4.33083142,5.25044005 4.76443691,4.81683457 Z M4.97426267,5.03126938 C4.97346355,5.03200412 4.97266386,5.0327383 4.97186357,5.03347191 L4.97656894,5.0289666 C4.97580118,5.02973436 4.97503305,5.03050158 4.97426455,5.03126827 Z" id="Shape"></path>
                            <path d="M4.79064327,7.04845614 C5.51223788,7.04845614 6.13830409,7.67450568 6.13830409,8.39611696 L6.13830409,22.4087485 C6.13830409,23.0975518 5.50496468,23.7165029 4.79064327,23.7165029 L1.5968655,23.7165029 C0.875285942,23.7165029 0.249204678,23.0904217 0.249204678,22.3688421 L0.249204678,8.39611696 C0.249204678,7.64155501 0.828531978,7.04845614 1.55695906,7.04845614 L4.79064327,7.04845614 Z M5.03984795,22.4087485 L5.03984795,8.39611696 C5.03984795,8.27936251 4.90740808,8.14691228 4.79064327,8.14691228 L1.55695906,8.14691228 C1.45197605,8.14691228 1.34766082,8.26727023 1.34766082,8.39611696 L1.34766082,22.3688421 C1.34766082,22.4855966 1.4801007,22.6180468 1.5968655,22.6180468 L4.79064327,22.6180468 C4.91946157,22.6180468 5.03984795,22.5137151 5.03984795,22.4087485 Z" id="Shape"></path>
                            <path d="M13.6835673,8.18284312 C14.679177,7.21982632 16.0814827,6.64920468 17.5257544,6.64920468 L18.364117,6.64920468 C21.5995646,6.64920468 24.1032632,9.19024229 24.1032632,12.468117 L24.1032632,22.768 C24.1032632,23.2500799 23.6368687,23.7164561 23.154807,23.7164561 L19.1626199,23.7164561 C18.68054,23.7164561 18.2141637,23.2500617 18.2141637,22.768 L18.2141637,14.1847485 C18.2141637,13.4692927 18.0510781,12.9710009 17.6991737,12.6539958 C17.2902684,12.2450905 16.7305609,12.0192398 16.1285146,12.0192398 C14.9796315,12.0192398 14.0828187,12.9841786 14.0828187,14.224655 L14.0828187,22.8478129 C14.0828187,23.3404261 13.6165662,23.7164561 13.1343626,23.7164561 L8.74292398,23.7164561 C8.26072036,23.7164561 7.79446784,23.3404261 7.79446784,22.8478129 L7.79446784,7.95691228 C7.79446784,7.46154173 8.26881696,7.04840936 8.74292398,7.04840936 L12.7351111,7.04840936 C13.217191,7.04840936 13.6835673,7.51480382 13.6835673,7.9968655 L13.6835673,8.18284312 Z M23.1148538,22.7280936 L23.0749474,22.7280936 L23.0087878,22.661934 L23.0486942,22.6220276 L23.1148538,22.6881871 L23.1148538,22.7280936 Z M23.0047602,22.618 L23.0047602,12.4681637 C23.0047602,9.82578027 20.9856689,7.74766082 18.4040234,7.74766082 L17.5656608,7.74766082 C16.1508558,7.74766082 14.7929759,8.43194467 13.9988847,9.5401245 L12.6250175,10.9139917 L12.6250175,8.1468655 L8.93283041,8.1468655 L8.93283041,22.618 L13.024269,22.618 L13.024269,14.2247018 C13.024269,12.3979387 14.3956851,10.9630262 16.1684211,10.9208772 C17.054,10.9208772 17.8882859,11.2611831 18.5101362,11.8830334 C19.0549636,12.4278608 19.3125731,13.1800882 19.3125715,14.1840979 L19.3517837,22.618 L23.0047602,22.618 Z M12.6952047,8.03677193 L12.7351111,8.03677193 L12.7351111,8.07667836 L12.6689515,8.14283795 L12.6290451,8.10293151 L12.6952047,8.03677193 Z" id="Shape"></path>
                        </g>
                    </g>
                </g>
            </g>
        </g>
    </g>
</svg>