<?xml version="1.0" encoding="UTF-8"?>
<svg width="16px" height="16px" viewBox="0 0 16 16" version="1.1" xmlns="http://www.w3.org/2000/svg" xmlns:xlink="http://www.w3.org/1999/xlink">
    <!-- Generator: Sketch 55.2 (78181) - https://sketchapp.com -->
    <title>zoom-in</title>
    <desc>Created with Sketch.</desc>
    <g id="Final" stroke="none" stroke-width="1" fill="none" fill-rule="evenodd">
        <g id="01.1_cba_desk_homepage_submenu" transform="translate(-452.000000, -56.000000)" fill="#14576A" fill-rule="nonzero">
            <g id="HERO">
                <g id="search" transform="translate(436.000000, 40.000000)">
                    <g id="zoom-in" transform="translate(16.000000, 16.000000)">
                        <path d="M15.9089231,15.4786415 L11.3369231,10.8135849 C12.5030769,9.66611321 13.2255385,8.08422642 13.2255385,6.33962264 C13.2255385,2.84377358 10.3270769,0 6.764,0 C3.20092308,0 0.302461538,2.84377358 0.302461538,6.33962264 C0.302461538,9.8354717 3.20092308,12.6792453 6.764,12.6792453 C8.328,12.6792453 9.76338462,12.130717 10.8821538,11.2205283 L15.4652308,15.8970566 C15.5255385,15.9589434 15.6061538,15.9897358 15.6870769,15.9897358 C15.764,15.9897358 15.8406154,15.9616604 15.9003077,15.9055094 C16.0227692,15.7898868 16.0264615,15.5987925 15.9089231,15.4786415 Z M0.917846154,6.33962264 C0.917846154,3.17675472 3.54030769,0.603773585 6.764,0.603773585 C9.98769231,0.603773585 12.6101538,3.17675472 12.6101538,6.33962264 C12.6101538,9.50249057 9.98769231,12.0754717 6.764,12.0754717 C3.54030769,12.0754717 0.917846154,9.50249057 0.917846154,6.33962264 Z" id="Shape"></path>
                    </g>
                </g>
            </g>
        </g>
    </g>
</svg>