<?xml version="1.0" encoding="UTF-8"?>
<svg width="16px" height="18px" viewBox="0 0 16 18" version="1.1" xmlns="http://www.w3.org/2000/svg" xmlns:xlink="http://www.w3.org/1999/xlink">
    <!-- Generator: Sketch 55.2 (78181) - https://sketchapp.com -->
    <title>calendar (1)</title>
    <desc>Created with Sketch.</desc>
    <g id="Symbols" stroke="none" stroke-width="1" fill="none" fill-rule="evenodd">
        <g id="article-/-article-date" fill="#007E79" fill-rule="nonzero">
            <g id="calendar-(1)">
                <path d="M15.7142857,1.14285714 L13.7142857,1.14285714 L13.7142857,0.285714286 C13.7142857,0.127714286 13.5865714,0 13.4285714,0 L11.4285714,0 C11.2705714,0 11.1428571,0.127714286 11.1428571,0.285714286 L11.1428571,1.14285714 L4.85714286,1.14285714 L4.85714286,0.285714286 C4.85714286,0.127714286 4.72942857,0 4.57142857,0 L2.57142857,0 C2.41342857,0 2.28571429,0.127714286 2.28571429,0.285714286 L2.28571429,1.14285714 L0.285714286,1.14285714 C0.127714286,1.14285714 0,1.27057143 0,1.42857143 L0,4.57142857 L0,16.8571429 C0,17.0151429 0.127714286,17.1428571 0.285714286,17.1428571 L15.7142857,17.1428571 C15.8722857,17.1428571 16,17.0151429 16,16.8571429 L16,4.57142857 L16,1.42857143 C16,1.27057143 15.8722857,1.14285714 15.7142857,1.14285714 Z M11.7142857,0.571428571 L13.1428571,0.571428571 L13.1428571,1.42857143 L13.1428571,2.28571429 L11.7142857,2.28571429 L11.7142857,1.42857143 L11.7142857,0.571428571 Z M2.85714286,0.571428571 L4.28571429,0.571428571 L4.28571429,1.42857143 L4.28571429,2.28571429 L2.85714286,2.28571429 L2.85714286,1.42857143 L2.85714286,0.571428571 Z M0.571428571,1.71428571 L2.28571429,1.71428571 L2.28571429,2.57142857 C2.28571429,2.72942857 2.41342857,2.85714286 2.57142857,2.85714286 L4.57142857,2.85714286 C4.72942857,2.85714286 4.85714286,2.72942857 4.85714286,2.57142857 L4.85714286,1.71428571 L11.1428571,1.71428571 L11.1428571,2.57142857 C11.1428571,2.72942857 11.2705714,2.85714286 11.4285714,2.85714286 L13.4285714,2.85714286 C13.5865714,2.85714286 13.7142857,2.72942857 13.7142857,2.57142857 L13.7142857,1.71428571 L15.4285714,1.71428571 L15.4285714,4.28571429 L0.571428571,4.28571429 L0.571428571,1.71428571 Z M0.571428571,16.5714286 L0.571428571,4.85714286 L15.4285714,4.85714286 L15.4285714,16.5714286 L0.571428571,16.5714286 Z" id="Shape"></path>
                <path d="M10.2857143,6.57142857 L8.28571429,6.57142857 L7.71428571,6.57142857 L5.71428571,6.57142857 L5.14285714,6.57142857 L2.57142857,6.57142857 L2.57142857,9.14285714 L2.57142857,9.71428571 L2.57142857,11.7142857 L2.57142857,12.2857143 L2.57142857,14.8571429 L5.14285714,14.8571429 L5.71428571,14.8571429 L7.71428571,14.8571429 L8.28571429,14.8571429 L10.2857143,14.8571429 L10.8571429,14.8571429 L13.4285714,14.8571429 L13.4285714,12.2857143 L13.4285714,11.7142857 L13.4285714,9.71428571 L13.4285714,9.14285714 L13.4285714,6.57142857 L10.8571429,6.57142857 L10.2857143,6.57142857 Z M8.28571429,7.14285714 L10.2857143,7.14285714 L10.2857143,9.14285714 L8.28571429,9.14285714 L8.28571429,7.14285714 Z M10.2857143,11.7142857 L8.28571429,11.7142857 L8.28571429,9.71428571 L10.2857143,9.71428571 L10.2857143,11.7142857 Z M5.71428571,9.71428571 L7.71428571,9.71428571 L7.71428571,11.7142857 L5.71428571,11.7142857 L5.71428571,9.71428571 Z M5.71428571,7.14285714 L7.71428571,7.14285714 L7.71428571,9.14285714 L5.71428571,9.14285714 L5.71428571,7.14285714 Z M3.14285714,7.14285714 L5.14285714,7.14285714 L5.14285714,9.14285714 L3.14285714,9.14285714 L3.14285714,7.14285714 Z M3.14285714,9.71428571 L5.14285714,9.71428571 L5.14285714,11.7142857 L3.14285714,11.7142857 L3.14285714,9.71428571 Z M5.14285714,14.2857143 L3.14285714,14.2857143 L3.14285714,12.2857143 L5.14285714,12.2857143 L5.14285714,14.2857143 Z M7.71428571,14.2857143 L5.71428571,14.2857143 L5.71428571,12.2857143 L7.71428571,12.2857143 L7.71428571,14.2857143 Z M10.2857143,14.2857143 L8.28571429,14.2857143 L8.28571429,12.2857143 L10.2857143,12.2857143 L10.2857143,14.2857143 Z M12.8571429,14.2857143 L10.8571429,14.2857143 L10.8571429,12.2857143 L12.8571429,12.2857143 L12.8571429,14.2857143 Z M12.8571429,11.7142857 L10.8571429,11.7142857 L10.8571429,9.71428571 L12.8571429,9.71428571 L12.8571429,11.7142857 Z M12.8571429,7.14285714 L12.8571429,9.14285714 L10.8571429,9.14285714 L10.8571429,7.14285714 L12.8571429,7.14285714 Z" id="Shape"></path>
            </g>
        </g>
    </g>
</svg>