<?xml version="1.0" encoding="UTF-8"?>
<svg width="19px" height="20px" viewBox="0 0 19 20" version="1.1" xmlns="http://www.w3.org/2000/svg" xmlns:xlink="http://www.w3.org/1999/xlink">
    <!-- Generator: Sketch 55.2 (78181) - https://sketchapp.com -->
    <title>user (2)</title>
    <desc>Created with Sketch.</desc>
    <g id="Symbols" stroke="none" stroke-width="1" fill="none" fill-rule="evenodd">
        <g id="layout-/-mob-/-header" transform="translate(-194.000000, -25.000000)" fill="#007E79" fill-rule="nonzero">
            <g id="Header">
                <g id="user-(2)" transform="translate(194.000000, 25.000000)">
                    <path d="M9.64640884,0.0359116022 L8.87292818,0.0359116022 C6.79005525,0.0359116022 5.09392265,1.7320442 5.09392265,3.81491713 L5.09392265,7.40055249 C5.09392265,8.01933702 5.35911602,8.60497238 5.81767956,9.01381215 L5.81767956,11.9640884 C5.03867403,12.3618785 2.85635359,13.5276243 0.82320442,15.1961326 C0.303867403,15.6270718 -2.84217094e-14,16.2679558 -2.84217094e-14,16.9585635 L-2.84217094e-14,19.4171271 C-2.84217094e-14,19.7209945 0.243093923,19.9640884 0.546961326,19.9640884 L17.9834254,19.9640884 C18.2872928,19.9640884 18.5303867,19.7209945 18.5303867,19.4171271 L18.5303867,16.9585635 C18.5303867,16.2734807 18.2265193,15.6270718 17.6961326,15.1961326 C15.6629834,13.5276243 13.480663,12.3563536 12.7016575,11.9640884 L12.7016575,9.01381215 C13.160221,8.60497238 13.4254144,8.02486188 13.4254144,7.40055249 L13.4254144,3.80939227 C13.4254144,1.72651934 11.7292818,0.0359116022 9.64640884,0.0359116022 Z M12.0055249,12.8314917 C12.4585635,13.0524862 14.8232044,14.2458564 17,16.0359116 C17.2762431,16.2624309 17.4309392,16.5994475 17.4309392,16.9530387 L17.4309392,18.8646409 L1.09392265,18.8646409 L1.09392265,16.9585635 C1.09392265,16.5994475 1.25414365,16.2624309 1.52486188,16.0414365 C3.70718232,14.2513812 6.06629834,13.058011 6.51933702,12.8370166 C6.76243094,12.7154696 6.91712707,12.4723757 6.91712707,12.2016575 L6.91712707,8.74309392 C6.91712707,8.56077348 6.82320442,8.38950276 6.67403315,8.29005525 C6.37569061,8.09116022 6.19337017,7.75966851 6.19337017,7.40055249 L6.19337017,3.80939227 C6.19337017,2.32872928 7.39779006,1.12430939 8.87845304,1.12430939 L9.6519337,1.12430939 C11.1325967,1.12430939 12.3370166,2.32872928 12.3370166,3.80939227 L12.3370166,7.39502762 C12.3370166,7.75414365 12.160221,8.08563536 11.8563536,8.28453039 C11.7016575,8.3839779 11.6132597,8.55524862 11.6132597,8.73756906 L11.6132597,12.1961326 C11.6077348,12.4668508 11.7624309,12.7154696 12.0055249,12.8314917 Z" id="Shape"></path>
                </g>
            </g>
        </g>
    </g>
</svg>