<?xml version="1.0" encoding="UTF-8"?>
<svg width="14px" height="26px" viewBox="0 0 14 26" version="1.1" xmlns="http://www.w3.org/2000/svg" xmlns:xlink="http://www.w3.org/1999/xlink">
    <!-- Generator: Sketch 56.2 (81672) - https://sketch.com -->
    <title>fb</title>
    <desc>Created with Sketch.</desc>
    <g id="Final" stroke="none" stroke-width="1" fill="none" fill-rule="evenodd">
        <g id="01_cba_HP_modry-prechod" transform="translate(-322.000000, -4554.000000)" fill="#007E79" fill-rule="nonzero" stroke="#007E79" stroke-width="0.2">
            <g id="Projekty" transform="translate(136.000000, 4203.000000)">
                <g id="Projekt-1" transform="translate(0.000000, 122.000000)">
                    <g id="soc.-sítě" transform="translate(187.000000, 230.000000)">
                        <g id="fb">
                            <path d="M8.06964706,23.9884567 L2.90757093,23.9884567 L2.90757093,13.2329689 L0.0638615917,13.2329689 L0.0638615917,8.29345329 L2.90748789,8.29345329 L2.90748789,5.51975087 C2.90748789,2.97334256 4.50062284,0 8.99244291,0 C10.5759446,0 11.7384083,0.148401384 11.7869896,0.154795848 L12.2635848,0.216747405 L12.1488166,4.83928028 L11.6236401,4.83446367 C11.6225606,4.83446367 10.4424913,4.8232526 9.15521107,4.8232526 C8.19720415,4.8232526 8.07014533,5.05968166 8.07014533,6.00008304 L8.07014533,8.29453287 L12.2982145,8.29453287 L12.0639446,13.2340484 L8.0706436,13.2340484 L8.0706436,23.9884567 L8.06964706,23.9884567 Z M3.97436678,22.9209965 L7.00160554,22.9209965 L7.00160554,12.16609 L11.0439862,12.16609 L11.1774394,9.36091349 L7.00160554,9.36091349 L7.00160554,5.99900346 C7.00160554,4.88885813 7.25721799,3.7547128 9.15404844,3.7547128 C9.91623529,3.7547128 10.6404706,3.75844983 11.1063529,3.76218685 L11.1709619,1.16354325 C10.6996817,1.1213564 9.91565398,1.06746021 8.99128028,1.06746021 C5.29212457,1.06746021 3.97378547,3.36722491 3.97378547,5.51975087 L3.97378547,9.36091349 L1.13024221,9.36091349 L1.13024221,12.16609 L3.97386851,12.16609 L3.97386851,22.9209965 L3.97436678,22.9209965 Z" id="Shape"></path>
                        </g>
                    </g>
                </g>
            </g>
        </g>
    </g>
</svg>