<?xml version="1.0" encoding="UTF-8"?>
<svg width="26px" height="26px" viewBox="0 0 26 26" version="1.1" xmlns="http://www.w3.org/2000/svg" xmlns:xlink="http://www.w3.org/1999/xlink">
    <!-- Generator: Sketch 56.2 (81672) - https://sketch.com -->
    <title>ig</title>
    <desc>Created with Sketch.</desc>
    <g id="Final" stroke="none" stroke-width="1" fill="none" fill-rule="evenodd">
        <g id="01_cba_HP_modry-prechod" transform="translate(-419.000000, -4554.000000)" fill="#007E79" fill-rule="nonzero" stroke="#007E79" stroke-width="0.2">
            <g id="Projekty" transform="translate(136.000000, 4203.000000)">
                <g id="Projekt-1" transform="translate(0.000000, 122.000000)">
                    <g id="soc.-sítě" transform="translate(187.000000, 230.000000)">
                        <g id="ig" transform="translate(97.000000, 0.000000)">
                            <path d="M17.503418,0 L6.49658203,0 C2.91430664,0 0,2.91430664 0,6.49658203 L0,17.5036011 C0,21.0856934 2.91430664,24 6.49658203,24 L17.5036011,24 C21.0856934,24 24,21.0856934 24,17.5036011 L24,6.49658203 C24,2.91430664 21.0856934,0 17.503418,0 Z M22.5930176,17.5036011 C22.5930176,20.3098755 20.3098755,22.5930176 17.503418,22.5930176 L6.49658203,22.5930176 C3.6901245,22.5930176 1.40698242,20.3098755 1.40698242,17.5036011 L1.40698242,6.49658203 C1.40698242,3.6901245 3.6901245,1.40698242 6.49658203,1.40698242 L17.5036011,1.40698242 C20.3098755,1.40698242 22.5930176,3.6901245 22.5930176,6.49658203 L22.5930176,17.5036011 Z" id="Shape"></path>
                            <path d="M12,5.43768309 C8.38146975,5.43768309 5.43768309,8.38146975 5.43768309,12 C5.43768309,15.6185303 8.38146975,18.5623169 12,18.5623169 C15.6185303,18.5623169 18.5623169,15.6185302 18.5623169,12 C18.5623169,8.38146975 15.6185302,5.43768309 12,5.43768309 Z M12,17.1553345 C9.1574707,17.1553345 6.84466552,14.8427124 6.84466552,12 C6.84466552,9.1574707 9.1574707,6.84466552 12,6.84466552 C14.8427124,6.84466552 17.1553345,9.1574707 17.1553345,12 C17.1553345,14.8427124 14.8427124,17.1553345 12,17.1553345 Z" id="Shape"></path>
                            <path d="M18.7192383,3.10711669 C17.6499023,3.10711669 16.7801513,3.97705078 16.7801513,5.04620363 C16.7801513,6.11553956 17.6499023,6.98547366 18.7192383,6.98547366 C19.7885742,6.98547366 20.6585083,6.11553956 20.6585083,5.04620363 C20.6585083,3.97686769 19.7885742,3.10711669 18.7192383,3.10711669 Z M18.7192383,5.57830809 C18.4259033,5.57830809 18.1871338,5.33953856 18.1871338,5.04620363 C18.1871338,4.75268555 18.4259033,4.51409911 18.7192383,4.51409911 C19.0127564,4.51409911 19.2515259,4.75268555 19.2515259,5.04620363 C19.2515259,5.33953856 19.0127564,5.57830809 18.7192383,5.57830809 Z" id="Shape"></path>
                        </g>
                    </g>
                </g>
            </g>
        </g>
    </g>
</svg>