<?xml version="1.0" encoding="UTF-8"?>
<svg width="15px" height="16px" viewBox="0 0 15 16" version="1.1" xmlns="http://www.w3.org/2000/svg" xmlns:xlink="http://www.w3.org/1999/xlink">
    <!-- Generator: Sketch 55.2 (78181) - https://sketchapp.com -->
    <title>user (2)</title>
    <desc>Created with Sketch.</desc>
    <g id="Final" stroke="none" stroke-width="1" fill="none" fill-rule="evenodd">
        <g id="01_cba_HP_modry-prechod" transform="translate(-1103.000000, -56.000000)" fill="#FFFFFF" fill-rule="nonzero">
            <g id="HERO">
                <g id="btn-/-btn-login" transform="translate(1063.000000, 40.000000)">
                    <g id="user-(2)" transform="translate(40.000000, 16.000000)">
                        <path d="M7.71712707,0.0287292818 L7.09834254,0.0287292818 C5.4320442,0.0287292818 4.07513812,1.38563536 4.07513812,3.0519337 L4.07513812,5.92044199 C4.07513812,6.41546961 4.28729282,6.8839779 4.65414365,7.21104972 L4.65414365,9.57127072 C4.03093923,9.88950276 2.28508287,10.8220994 0.658563536,12.1569061 C0.243093923,12.5016575 -2.84217094e-14,13.0143646 -2.84217094e-14,13.5668508 L-2.84217094e-14,15.5337017 C-2.84217094e-14,15.7767956 0.194475138,15.9712707 0.437569061,15.9712707 L14.3867403,15.9712707 C14.6298343,15.9712707 14.8243094,15.7767956 14.8243094,15.5337017 L14.8243094,13.5668508 C14.8243094,13.0187845 14.5812155,12.5016575 14.1569061,12.1569061 C12.5303867,10.8220994 10.7845304,9.88508287 10.161326,9.57127072 L10.161326,7.21104972 C10.5281768,6.8839779 10.7403315,6.4198895 10.7403315,5.92044199 L10.7403315,3.04751381 C10.7403315,1.38121547 9.38342541,0.0287292818 7.71712707,0.0287292818 Z M9.60441989,10.2651934 C9.96685083,10.441989 11.8585635,11.3966851 13.6,12.8287293 C13.8209945,13.0099448 13.9447514,13.279558 13.9447514,13.5624309 L13.9447514,15.0917127 L0.875138122,15.0917127 L0.875138122,13.5668508 C0.875138122,13.279558 1.00331492,13.0099448 1.2198895,12.8331492 C2.96574586,11.401105 4.85303867,10.4464088 5.21546961,10.2696133 C5.40994475,10.1723757 5.53370166,9.97790055 5.53370166,9.76132597 L5.53370166,6.99447514 C5.53370166,6.84861878 5.45856354,6.71160221 5.33922652,6.6320442 C5.10055249,6.47292818 4.95469613,6.20773481 4.95469613,5.92044199 L4.95469613,3.04751381 C4.95469613,1.86298343 5.91823204,0.899447514 7.10276243,0.899447514 L7.72154696,0.899447514 C8.90607735,0.899447514 9.86961326,1.86298343 9.86961326,3.04751381 L9.86961326,5.9160221 C9.86961326,6.20331492 9.7281768,6.46850829 9.48508287,6.62762431 C9.36132597,6.70718232 9.29060773,6.8441989 9.29060773,6.99005525 L9.29060773,9.75690608 C9.28618785,9.97348066 9.40994475,10.1723757 9.60441989,10.2651934 Z" id="Shape"></path>
                    </g>
                </g>
            </g>
        </g>
    </g>
</svg>