<?xml version="1.0" encoding="UTF-8"?>
<svg width="56px" height="37px" viewBox="0 0 56 37" version="1.1" xmlns="http://www.w3.org/2000/svg" xmlns:xlink="http://www.w3.org/1999/xlink">
    <!-- Generator: Sketch 56.2 (81672) - https://sketch.com -->
    <title>komentare-studie-prognozy</title>
    <desc>Created with Sketch.</desc>
    <g id="Final" stroke="none" stroke-width="1" fill="none" fill-rule="evenodd">
        <g id="01_cba_HP_modry-prechod" transform="translate(-792.000000, -397.000000)" fill="#FFFFFF" fill-rule="nonzero">
            <g id="HERO">
                <g id="Kategorie" transform="translate(138.000000, 367.000000)">
                    <g id="komentare-studie-prognozy" transform="translate(654.000000, 30.000000)">
                        <polygon id="Path" points="1.91578947 34.4105263 1.91578947 0 0 0 0 36.3263158 55.8526316 36.3263158 55.8526316 34.4105263"></polygon>
                        <polygon id="Path" points="23.4315789 11.1263158 33.2315789 21 49.2210526 5.08421053 49.2210526 7.44210526 51.1368421 7.44210526 51.1368421 1.69473684 45.3894737 1.69473684 45.3894737 3.61052632 47.8947368 3.61052632 33.2315789 18.2736842 23.4315789 8.4 3.68421053 28.1473684 5.08421053 29.4736842"></polygon>
                        <rect id="Rectangle" x="7.51578947" y="29.4736842" width="1.91578947" height="3.16842105"></rect>
                        <rect id="Rectangle" x="12.5263158" y="25.3473684" width="1.91578947" height="7.22105263"></rect>
                        <rect id="Rectangle" x="17.4631579" y="20.2631579" width="1.91578947" height="12.3052632"></rect>
                        <rect id="Rectangle" x="22.4736842" y="15.9894737" width="1.91578947" height="16.5789474"></rect>
                        <rect id="Rectangle" x="27.4105263" y="20.2631579" width="1.91578947" height="12.3052632"></rect>
                        <rect id="Rectangle" x="32.3473684" y="23.5052632" width="1.91578947" height="9.06315789"></rect>
                        <rect id="Rectangle" x="37.3578947" y="20.2631579" width="1.91578947" height="12.3052632"></rect>
                        <rect id="Rectangle" x="42.2947368" y="15.9894737" width="1.91578947" height="16.5789474"></rect>
                        <rect id="Rectangle" x="47.3052632" y="10.6105263" width="1.91578947" height="22.0315789"></rect>
                    </g>
                </g>
            </g>
        </g>
    </g>
</svg>