<?xml version="1.0" encoding="UTF-8"?>
<svg width="54px" height="48px" viewBox="0 0 54 48" version="1.1" xmlns="http://www.w3.org/2000/svg" xmlns:xlink="http://www.w3.org/1999/xlink">
    <!-- Generator: Sketch 56.2 (81672) - https://sketch.com -->
    <title>desatero-bezpecnosti</title>
    <desc>Created with Sketch.</desc>
    <g id="Final" stroke="none" stroke-width="1" fill="none" fill-rule="evenodd">
        <g id="01_cba_HP_modry-prechod" transform="translate(-1187.000000, -391.000000)" fill="#FFFFFF" fill-rule="nonzero">
            <g id="HERO">
                <g id="Kategorie" transform="translate(138.000000, 367.000000)">
                    <g id="desatero-bezpecnosti" transform="translate(1049.000000, 24.000000)">
                        <path d="M0,0 L0,44.55 L5.475,44.55 L5.475,47.85 L12.975,47.85 L12.975,45.9 L7.5,45.9 L7.5,44.55 L12.975,44.55 L41.025,44.55 L41.025,47.85 L48.525,47.85 L48.525,45.9 L43.05,45.9 L43.05,44.55 L48.525,44.55 L54,44.55 L54,0 L0,0 Z M52.05,42.525 L48.525,42.525 L41.025,42.525 L12.975,42.525 L5.475,42.525 L1.95,42.525 L1.95,1.95 L51.975,1.95 L51.975,42.525 L52.05,42.525 Z" id="Shape"></path>
                        <path d="M49.95,37.05 L7.5,37.05 L7.5,7.5 L46.5,7.5 L46.5,10.275 L44.7,10.275 L44.7,17.55 L50.325,17.55 L50.325,10.275 L48.525,10.275 L48.525,5.475 L5.475,5.475 L5.475,39 L49.95,39 L49.95,37.05 Z M48.375,15.525 L46.65,15.525 L46.65,12.225 L48.375,12.225 L48.375,15.525 Z" id="Shape"></path>
                        <path d="M30.225,25.5 C31.125,24.6 31.575,23.475 31.575,22.275 C31.575,21.075 31.125,19.875 30.225,19.05 C28.425,17.25 25.575,17.25 23.775,19.05 C21.975,20.85 21.975,23.7 23.775,25.5 C24.675,26.4 25.875,26.85 27,26.85 C28.2,26.85 29.325,26.4 30.225,25.5 Z M25.2,20.4 C25.725,19.875 26.4,19.65 27.075,19.65 C27.75,19.65 28.425,19.875 28.95,20.4 C29.475,20.925 29.7,21.525 29.7,22.275 C29.7,22.95 29.4,23.625 28.95,24.15 C27.9,25.2 26.325,25.2 25.275,24.15 C24.15,23.1 24.15,21.45 25.2,20.4 Z" id="Shape"></path>
                        <path d="M26.025,34.275 L27,34.275 C30.225,34.275 33.225,33 35.55,30.75 C40.275,26.025 40.275,18.45 35.55,13.725 C34.275,12.45 32.85,11.55 31.2,10.95 L30.3,10.575 L29.625,12.45 L30.525,12.825 C31.575,13.2 32.55,13.8 33.45,14.475 L32.1,15.75 L33.525,17.175 L34.8,15.9 C36.075,17.475 36.825,19.35 37.05,21.3 L35.25,21.3 L35.25,23.25 L37.05,23.25 C36.825,25.2 36.15,27.075 34.8,28.65 L33.525,27.375 L32.1,28.8 L33.375,30.075 C31.8,31.35 30,32.1 27.975,32.325 L27.975,30.45 L26.025,30.45 L26.025,33.9 L26.025,33.9 L26.025,34.275 Z" id="Path"></path>
                        <path d="M27.975,14.1 L27.975,12.225 L27.975,12.225 L27.975,10.275 L27,10.275 C23.775,10.275 20.775,11.55 18.45,13.8 C16.2,16.05 14.925,19.125 14.925,22.35 C14.925,25.575 16.2,28.575 18.45,30.9 C19.65,32.1 21.075,33.075 22.725,33.675 L23.625,34.05 L24.3,32.175 L23.4,31.8 C22.35,31.425 21.45,30.825 20.55,30.15 L21.825,28.875 L20.4,27.45 L19.125,28.725 C17.85,27.15 17.1,25.35 16.875,23.325 L18.75,23.325 L18.75,21.375 L16.875,21.375 C17.1,19.35 17.85,17.55 19.125,15.975 L20.4,17.25 L21.825,15.825 L20.55,14.55 C22.125,13.275 23.925,12.525 25.95,12.3 L25.95,14.175 L27.975,14.175 L27.975,14.1 Z" id="Path"></path>
                        <path d="M48.525,19.575 L46.5,19.575 L46.5,27.075 L44.7,27.075 L44.7,34.35 L50.325,34.35 L50.325,27.075 L48.525,27.075 L48.525,19.575 L48.525,19.575 Z M48.375,32.325 L46.65,32.325 L46.65,29.025 L48.375,29.025 L48.375,32.325 Z" id="Shape"></path>
                    </g>
                </g>
            </g>
        </g>
    </g>
</svg>