<svg xmlns="http://www.w3.org/2000/svg" width="82.629" height="93.236" viewBox="0 0 82.629 93.236"><path d="M56.79 51.27H40.741V4.089h18.413c3.912 0 13.011.917 13.011 9.409 0 8.341-6.468 9.397-11.513 9.668-3.387.005-11.018 0-11.018 0l1.667 4.045h11.141c3.318 0 14.143.879 14.143 12.199 0 6.024-3.596 9.024-7.607 10.496l1.524 3.736c5.171-1.896 10.131-5.888 10.131-14.232 0-8.27-4.661-12.86-10.308-14.913 3.435-2.143 5.89-5.667 5.89-11C76.214 3.576 67.4.042 59.154.042H36.692v55.277h21.75z" fill="#235367"/><path d="M52.836 62.799l-2.95-2.948c-4.857 4.386-11.289 7.062-18.333 7.062-15.101 0-27.385-12.284-27.385-27.385s11.61-27.385 26.71-27.385c.35 0 .697.014 1.042.025V8c-.345-.01-.692-.026-1.041-.026C13.48 7.975 0 22.129 0 39.528S14.155 71.08 31.553 71.08c8.195 0 15.668-3.141 21.283-8.281M31.841 0H18.157v4.05h13.684z" fill="#235367"/><path d="M82.629 93.236L57.232 31.023h-4.5L70.697 75.03H32.925l-7.672 18.205h4.493l5.992-14.039h36.659l5.73 14.039z" fill="#235367"/></svg>