<svg xmlns="http://www.w3.org/2000/svg" width="265.769" height="93.32" viewBox="0 0 265.769 93.32"><defs><clipPath clipPathUnits="userSpaceOnUse" id="a"><path d="M0 595.28h841.89V0H0z"/></clipPath></defs><g clip-path="url(#a)" fill="#fff" transform="matrix(1.33333 0 0 -1.33333 -428.375 443.513)"><path d="M402.066 288.679a6.76 6.76 0 00-2.093-.314c-2.616 0-3.925 1.3-3.925 3.898 0 2.459 1.31 3.689 3.925 3.689a6.76 6.76 0 002.093-.314v-.837a5.584 5.584 0 01-1.988.366c-2.04 0-3.062-.967-3.062-2.904 0-2.075 1.021-3.113 3.062-3.113.68 0 1.342.123 1.988.367zM408.251 295.9v-.786h-3.924v-2.512h3.741v-.784h-3.741v-2.616h4.002v-.785h-4.971v7.482zM409.623 288.679v.89a7.533 7.533 0 012.543-.42c1.287 0 1.931.47 1.931 1.414 0 .802-.475 1.204-1.424 1.204h-1.068c-1.565 0-2.348.68-2.348 2.04 0 1.43 1.003 2.145 3.009 2.145.871 0 1.682-.105 2.432-.314v-.89a6.922 6.922 0 01-2.432.419c-1.362 0-2.041-.453-2.041-1.36 0-.802.46-1.204 1.38-1.204h1.068c1.595 0 2.391-.68 2.391-2.04 0-1.465-.965-2.198-2.898-2.198-.911 0-1.759.105-2.543.314M422.462 295.9l-3.354-3.49 3.793-3.993h-1.45l-3.31 3.652v.586l3.097 3.244zm-5.16-7.483h-.967v7.482h.968zM428.264 298.035v-.785l-2.093-.785v.785zm-4.71-9.618l3.177 7.482h1.073l3.19-7.482h-1.02l-.993 2.355h-2.501l.266.784h1.869l-1.382 3.34-2.673-6.479zM440.206 288.679a7.098 7.098 0 00-2.094-.314c-2.615 0-3.924 1.3-3.924 3.898 0 2.459 1.31 3.689 3.924 3.689.715 0 1.413-.105 2.094-.314v-.471a6.764 6.764 0 01-1.988.315c-2.32 0-3.48-1.074-3.48-3.22 0-2.284 1.16-3.426 3.48-3.426.644 0 1.307.105 1.988.314zM446.638 295.9v-.472l-4.536-6.54h4.432v-.47h-5.128v.418l4.677 6.592h-4.572v.471zM452.791 295.9v-.472h-4.364v-2.982h4.186v-.47h-4.186v-3.089h4.437v-.47h-4.986v7.482zM459.87 288.679a7.091 7.091 0 00-2.094-.314c-2.617 0-3.925 1.3-3.925 3.898 0 2.459 1.308 3.689 3.925 3.689.715 0 1.412-.105 2.093-.314v-.471a6.76 6.76 0 01-1.989.315c-2.319 0-3.479-1.074-3.479-3.22 0-2.284 1.16-3.426 3.48-3.426.645 0 1.307.105 1.988.314zM461.136 288.417v7.482h.549v-3.453h5.1v3.453h.55v-7.482h-.55v3.559h-5.1v-3.559zM399.335 276.343c.893 0 1.34.453 1.34 1.359 0 .883-.599 1.325-1.795 1.325h-.419v.633c1.431.193 2.145.708 2.145 1.548 0 .698-.397 1.047-1.193 1.047h-2.135v-5.912zm-3.024-.785v7.482h3.191c1.424 0 2.136-.58 2.136-1.742 0-.851-.465-1.46-1.393-1.826.991-.186 1.486-.752 1.486-1.701 0-1.475-.779-2.213-2.338-2.213zM402.354 275.558l3.176 7.482h1.072l3.192-7.482h-1.02l-.994 2.355h-2.5l.266.784h1.869l-1.383 3.34-2.674-6.48zM410.772 275.558v7.482h.968l4.578-5.974v5.974h.916v-7.482h-.968l-4.58 5.976v-5.976zM425.003 283.04l-3.354-3.49 3.793-3.992h-1.45l-3.311 3.652v.586l3.097 3.244zm-5.16-7.482h-.968v7.482h.969zM429.274 276.29c1.787 0 2.68 1.01 2.68 3.029 0 1.992-.893 2.989-2.68 2.989-1.824 0-2.736-.997-2.736-2.989 0-2.019.912-3.029 2.736-3.029m-3.756 2.998c0 2.536 1.252 3.805 3.756 3.805 2.467 0 3.7-1.269 3.7-3.805 0-2.521-1.233-3.783-3.7-3.783-2.504 0-3.756 1.262-3.756 3.783M440.757 283.04l-3.176-7.482h-1.073l-3.191 7.482h1.02l2.74-6.479 2.675 6.479zM441.735 275.558v7.482h.968l4.578-5.974v5.974h.916v-7.482h-.968l-4.578 5.976v-5.976zM449.857 275.558h.968v7.482h-.968zm1.544 9.617v-.785l-2.093-.786v.786zM457.958 276.028c1.206 0 1.81.56 1.81 1.674 0 .988-.755 1.481-2.266 1.481h-.419v.372c1.744.157 2.617.725 2.617 1.705 0 .873-.537 1.31-1.611 1.31h-2.607v-6.542zm-3.025-.47v7.482h3.192c1.423 0 2.135-.58 2.135-1.742 0-.852-.517-1.46-1.549-1.827 1.095-.185 1.643-.769 1.643-1.754 0-1.439-.78-2.16-2.339-2.16zM460.972 275.558l3.385 7.482h.654l3.4-7.482h-.653l-1.1 2.512h-3.18l.162.47h2.81l-1.8 4.07-3.092-7.052zM469.388 275.558v7.482h.707l4.997-6.498v6.498h.497v-7.482h-.445l-5.258 6.865v-6.865zM482.23 283.04l-3.458-3.49 3.897-3.992h-.926l-3.469 3.652v.586l3.255 3.244zm-4.452-7.482h-.55v7.482h.55zM484.325 275.558h-.549v7.482h.549zM485.965 275.558v7.482h.706l4.997-6.498v6.498h.497v-7.482h-.445l-5.258 6.865v-6.865zM499.519 275.85a5.873 5.873 0 00-2.004-.345c-2.676 0-4.014 1.3-4.014 3.899 0 2.459 1.309 3.689 3.924 3.689.716 0 1.413-.105 2.094-.314v-.471a6.762 6.762 0 01-1.988.314c-2.321 0-3.481-1.073-3.481-3.218 0-2.285 1.127-3.428 3.38-3.428.462 0 .974.078 1.539.23v2.752h.55zM395.656 262.698l3.177 7.482h1.072l3.191-7.482h-1.019l-.994 2.355h-2.502l.267.784h1.87l-1.383 3.34-2.674-6.479zM404.106 262.96v.889a7.558 7.558 0 012.543-.418c1.287 0 1.93.47 1.93 1.412 0 .803-.475 1.205-1.424 1.205h-1.067c-1.565 0-2.348.68-2.348 2.039 0 1.432 1.003 2.146 3.009 2.146.872 0 1.682-.105 2.432-.314v-.889a6.94 6.94 0 01-2.432.418c-1.362 0-2.041-.453-2.041-1.361 0-.801.46-1.203 1.38-1.203h1.068c1.595 0 2.39-.68 2.39-2.041 0-1.465-.964-2.197-2.897-2.197-.911 0-1.76.105-2.543.314M414.3 263.43c1.786 0 2.679 1.01 2.679 3.03 0 1.992-.893 2.989-2.68 2.989-1.823 0-2.735-.997-2.735-2.99 0-2.018.912-3.028 2.736-3.028m-3.757 2.998c0 2.537 1.252 3.805 3.757 3.805 2.466 0 3.699-1.268 3.699-3.805 0-2.521-1.233-3.783-3.7-3.783-2.504 0-3.756 1.262-3.756 3.783M425.063 262.96a6.766 6.766 0 00-2.094-.314c-2.616 0-3.924 1.298-3.924 3.898 0 2.459 1.308 3.689 3.924 3.689.75 0 1.448-.105 2.094-.314v-.838a5.585 5.585 0 01-1.988.367c-2.04 0-3.062-.968-3.062-2.904 0-2.076 1.021-3.113 3.062-3.113.68 0 1.342.123 1.988.367zM427.343 262.698h-.969v7.482h.969zM428.32 262.698l3.175 7.482h1.072l3.192-7.482h-1.02l-.994 2.355h-2.5l.265.784h1.87l-1.383 3.34-2.674-6.479zM442.099 262.96a6.766 6.766 0 00-2.094-.314c-2.616 0-3.924 1.298-3.924 3.898 0 2.459 1.308 3.689 3.924 3.689.75 0 1.448-.105 2.094-.314v-.838a5.586 5.586 0 01-1.99.367c-2.04 0-3.06-.968-3.06-2.904 0-2.076 1.02-3.113 3.06-3.113.68 0 1.344.123 1.99.367zM448.282 270.18v-.784h-3.924v-2.512h3.741v-.785h-3.74v-2.615h4.002v-.785h-4.972v7.482zM451.684 262.698l3.386 7.482h.654l3.4-7.482h-.654l-1.1 2.512h-3.18l.163.47h2.81l-1.8 4.071-3.093-7.053zM460.05 262.96v.523c.785-.244 1.65-.367 2.596-.367 1.53 0 2.297.612 2.297 1.832 0 .838-.51 1.256-1.528 1.256h-1.642c-1.393 0-2.088.61-2.088 1.832 0 1.465 1.002 2.197 3.008 2.197.837 0 1.648-.105 2.433-.314v-.471a9.417 9.417 0 01-2.433.315c-1.64 0-2.46-.576-2.46-1.727 0-.873.513-1.308 1.54-1.308h1.642c1.385 0 2.077-.594 2.077-1.78 0-1.535-.95-2.302-2.846-2.302-.946 0-1.811.105-2.596.314M466.56 262.96v.523c.785-.244 1.65-.367 2.596-.367 1.53 0 2.297.612 2.297 1.832 0 .838-.51 1.256-1.53 1.256h-1.642c-1.391 0-2.087.61-2.087 1.832 0 1.465 1.003 2.197 3.009 2.197.836 0 1.648-.105 2.432-.314v-.471a9.41 9.41 0 01-2.432.315c-1.64 0-2.46-.576-2.46-1.727 0-.873.512-1.308 1.538-1.308h1.643c1.385 0 2.077-.594 2.077-1.78 0-1.535-.95-2.302-2.845-2.302-.946 0-1.811.105-2.596.314M476.836 263.116c2.065 0 3.098 1.115 3.098 3.344 0 2.201-1.033 3.302-3.098 3.302-2.104 0-3.155-1.1-3.155-3.302 0-2.229 1.05-3.344 3.155-3.344m-3.757 3.313c0 2.537 1.252 3.804 3.757 3.804 2.466 0 3.699-1.267 3.699-3.804 0-2.522-1.233-3.784-3.7-3.784-2.504 0-3.756 1.262-3.756 3.784M487.599 262.96a7.082 7.082 0 00-2.093-.314c-2.616 0-3.925 1.298-3.925 3.898 0 2.459 1.309 3.689 3.925 3.689.716 0 1.413-.105 2.093-.314v-.471a6.754 6.754 0 01-1.988.315c-2.32 0-3.48-1.074-3.48-3.219 0-2.285 1.16-3.428 3.48-3.428.645 0 1.308.106 1.988.315zM489.415 262.698h-.55v7.482h.55zM490.394 262.698l3.385 7.482h.654l3.4-7.482h-.654l-1.098 2.512H492.9l.162.47h2.81l-1.8 4.071-3.092-7.053zM502.788 270.18v-.47h-2.563v-7.011h-.55v7.01h-2.512v.472zM504.249 262.698h-.55v7.482h.55zM509.356 263.116c2.065 0 3.098 1.115 3.098 3.344 0 2.201-1.033 3.302-3.098 3.302-2.104 0-3.154-1.1-3.154-3.302 0-2.229 1.05-3.344 3.154-3.344m-3.756 3.313c0 2.537 1.252 3.804 3.756 3.804 2.467 0 3.7-1.267 3.7-3.804 0-2.522-1.233-3.784-3.7-3.784-2.504 0-3.756 1.262-3.756 3.784M514.408 262.698v7.482h.706l4.997-6.498v6.498h.497v-7.482h-.445l-5.258 6.865v-6.865zM392.337 262.708h-1.2v35.201h1.2zM400.963 298.583h-.784l-.524-.837-.523.837h-.785l.916-1.36h.785zM363.874 294.183h-12.037v35.386h13.81c2.934 0 9.758-.688 9.758-7.057 0-6.256-4.851-7.048-8.635-7.251-2.54-.004-8.263 0-8.263 0l1.25-3.034h8.356c2.488 0 10.607-.66 10.607-9.15 0-4.517-2.697-6.767-5.705-7.871l1.143-2.802c3.878 1.422 7.598 4.416 7.598 10.674 0 6.202-3.496 9.645-7.731 11.185 2.576 1.607 4.417 4.25 4.417 8.249 0 7.442-6.61 10.093-12.795 10.093h-16.846v-41.458h16.312z"/><path d="M360.908 285.536l-2.212 2.211a20.457 20.457 0 00-13.75-5.297c-11.326 0-20.539 9.213-20.539 20.54 0 11.325 8.707 20.538 20.033 20.538.262 0 .522-.01.781-.019v3.125c-.259.008-.519.02-.78.02-13.05 0-23.16-10.616-23.16-23.665s10.616-23.664 23.665-23.664c6.146 0 11.751 2.356 15.962 6.211M345.162 332.635h-10.263v-3.037h10.263z"/><path d="M383.253 262.708l-19.048 46.66h-3.375l13.474-33.006h-28.33l-5.753-13.654h3.37l4.494 10.529h27.494l4.298-10.529z"/></g></svg>